<?xml version="1.0" standalone="no"?>
<!DOCTYPE svg PUBLIC "-//W3C//DTD SVG 20010904//EN"
 "http://www.w3.org/TR/2001/REC-SVG-20010904/DTD/svg10.dtd">
<svg version="1.0" xmlns="http://www.w3.org/2000/svg"
 width="216.000000pt" height="216.000000pt" viewBox="0 0 216.000000 216.000000"
 preserveAspectRatio="xMidYMid meet">
<metadata>
Created by potrace 1.14, written by Peter Selinger 2001-2017
</metadata>
<g transform="translate(0.000000,216.000000) scale(0.100000,-0.100000)"
fill="#000000" stroke="none">
<path d="M0 1080 l0 -1080 1080 0 1080 0 0 1080 0 1080 -1080 0 -1080 0 0
-1080z m1060 842 c41 -11 83 -23 92 -27 12 -5 17 0 20 17 l3 23 175 0 175 0 3
-677 2 -678 268 -2 267 -3 0 -135 0 -135 -480 0 -480 0 -3 31 -3 31 -57 -14
c-31 -7 -109 -16 -172 -20 -401 -20 -693 180 -791 542 -19 68 -22 106 -22 250
0 201 15 274 90 425 38 79 61 109 132 180 117 116 240 180 409 210 79 15 288
4 372 -18z"/>
<path d="M1305 1810 c10 -11 20 -20 23 -20 3 0 -3 9 -13 20 -10 11 -20 20 -23
20 -3 0 3 -9 13 -20z"/>
<path d="M750 1623 c-14 -2 -68 -17 -120 -34 -67 -22 -102 -39 -120 -59 -41
-46 -103 -151 -111 -189 -4 -20 -14 -54 -23 -76 -10 -28 -15 -77 -16 -161 0
-114 2 -124 30 -180 16 -32 53 -84 83 -114 85 -87 116 -109 207 -145 57 -22
75 -24 226 -24 l164 0 0 145 0 144 -164 0 c-158 0 -164 1 -189 24 -49 45 -51
192 -2 233 25 22 32 23 225 23 l199 0 3 189 3 189 -35 6 c-19 3 -60 12 -90 21
-50 14 -205 19 -270 8z"/>
</g>
</svg>
